<?xml version="1.0" encoding="UTF-8" standalone="no"?>
<!-- Created with Inkscape (http://www.inkscape.org/) -->

<svg
   width="36.299824mm"
   height="21.868906mm"
   viewBox="0 0 36.299825 21.868906"
   version="1.1"
   id="svg1"
   xml:space="preserve"
   inkscape:version="1.3.2 (091e20e, 2023-11-25, custom)"
   sodipodi:docname="imfm.svg"
   xmlns:inkscape="http://www.inkscape.org/namespaces/inkscape"
   xmlns:sodipodi="http://sodipodi.sourceforge.net/DTD/sodipodi-0.dtd"
   xmlns="http://www.w3.org/2000/svg"
   xmlns:svg="http://www.w3.org/2000/svg"><sodipodi:namedview
     id="namedview1"
     pagecolor="#ffffff"
     bordercolor="#666666"
     borderopacity="1.0"
     inkscape:showpageshadow="2"
     inkscape:pageopacity="0.0"
     inkscape:pagecheckerboard="0"
     inkscape:deskcolor="#d1d1d1"
     inkscape:document-units="mm"
     inkscape:zoom="0.7786055"
     inkscape:cx="99.536929"
     inkscape:cy="300.53731"
     inkscape:window-width="1920"
     inkscape:window-height="1112"
     inkscape:window-x="-8"
     inkscape:window-y="-8"
     inkscape:window-maximized="1"
     inkscape:current-layer="g1"><inkscape:page
       x="0"
       y="0"
       width="36.299824"
       height="21.868904"
       id="page1"
       margin="0"
       bleed="0" /><inkscape:page
       x="-54.740952"
       y="-68.981155"
       width="148.00015"
       height="210.00015"
       id="page2"
       margin="0"
       bleed="0" /></sodipodi:namedview><defs
     id="defs1"><clipPath
       clipPathUnits="userSpaceOnUse"
       id="clipPath2"><path
         d="M -1,-1 H 103.8755 V 62.9875 H -1 Z"
         transform="translate(-2.5000001e-6)"
         id="path2" /></clipPath><clipPath
       clipPathUnits="userSpaceOnUse"
       id="clipPath3"><path
         d="M -1,-1 H 103.8755 V 62.9875 H -1 Z"
         transform="translate(-2.5000001e-6)"
         id="path3" /></clipPath><clipPath
       clipPathUnits="userSpaceOnUse"
       id="clipPath4"><path
         d="M -1,-1 H 103.8755 V 62.9875 H -1 Z"
         transform="translate(-2.5000001e-6)"
         id="path4" /></clipPath><clipPath
       clipPathUnits="userSpaceOnUse"
       id="clipPath5"><path
         d="M -1,-1 H 103.8755 V 62.9875 H -1 Z"
         transform="translate(-2.5000001e-6)"
         id="path5" /></clipPath><clipPath
       clipPathUnits="userSpaceOnUse"
       id="clipPath6"><path
         d="M -1,-1 H 103.8755 V 62.9875 H -1 Z"
         transform="translate(-2.5000001e-6)"
         id="path6" /></clipPath><clipPath
       clipPathUnits="userSpaceOnUse"
       id="clipPath7"><path
         d="M -1,-1 H 103.8755 V 62.9875 H -1 Z"
         transform="translate(-2.5000001e-6)"
         id="path7" /></clipPath><clipPath
       clipPathUnits="userSpaceOnUse"
       id="clipPath8"><path
         d="M -1,-1 H 103.8755 V 62.9875 H -1 Z"
         transform="translate(-2.5000001e-6)"
         id="path8" /></clipPath><clipPath
       clipPathUnits="userSpaceOnUse"
       id="clipPath9"><path
         d="M -1,-1 H 103.8755 V 62.9875 H -1 Z"
         transform="translate(-2.5000001e-6)"
         id="path9" /></clipPath><clipPath
       clipPathUnits="userSpaceOnUse"
       id="clipPath10"><path
         d="M -1,-1 H 103.8755 V 62.9875 H -1 Z"
         transform="translate(-2.5000001e-6)"
         id="path10" /></clipPath><clipPath
       clipPathUnits="userSpaceOnUse"
       id="clipPath11"><path
         d="M -1,-1 H 103.8755 V 62.9875 H -1 Z"
         transform="translate(-2.5000001e-6)"
         id="path11" /></clipPath><clipPath
       clipPathUnits="userSpaceOnUse"
       id="clipPath12"><path
         d="M -1,-1 H 103.8755 V 62.9875 H -1 Z"
         transform="translate(-2.5000001e-6)"
         id="path12" /></clipPath><clipPath
       clipPathUnits="userSpaceOnUse"
       id="clipPath13"><path
         d="M -1,-1 H 103.8755 V 62.9875 H -1 Z"
         transform="translate(-2.5000001e-6)"
         id="path13" /></clipPath><clipPath
       clipPathUnits="userSpaceOnUse"
       id="clipPath14"><path
         d="M -1,-1 H 103.8755 V 62.9875 H -1 Z"
         transform="translate(-2.5000001e-6)"
         id="path14" /></clipPath><clipPath
       clipPathUnits="userSpaceOnUse"
       id="clipPath15"><path
         d="M -1,-1 H 103.8755 V 62.9875 H -1 Z"
         transform="translate(-2.5000001e-6)"
         id="path15" /></clipPath><clipPath
       clipPathUnits="userSpaceOnUse"
       id="clipPath16"><path
         d="M -1,-1 H 103.8755 V 62.9875 H -1 Z"
         transform="translate(-2.5000001e-6)"
         id="path16" /></clipPath><clipPath
       clipPathUnits="userSpaceOnUse"
       id="clipPath17"><path
         d="M -1,-1 H 103.8755 V 62.9875 H -1 Z"
         transform="translate(-2.5000001e-6)"
         id="path17" /></clipPath><clipPath
       clipPathUnits="userSpaceOnUse"
       id="clipPath18"><path
         d="M -1,-1 H 103.8755 V 62.9875 H -1 Z"
         transform="translate(-2.5000001e-6)"
         id="path18" /></clipPath><clipPath
       clipPathUnits="userSpaceOnUse"
       id="clipPath19"><path
         d="M -1,-1 H 103.8755 V 62.9875 H -1 Z"
         transform="translate(-2.5000001e-6)"
         id="path19" /></clipPath><clipPath
       clipPathUnits="userSpaceOnUse"
       id="clipPath20"><path
         d="M -1,-1 H 103.8755 V 62.9875 H -1 Z"
         transform="translate(-2.5000001e-6)"
         id="path20" /></clipPath><clipPath
       clipPathUnits="userSpaceOnUse"
       id="clipPath21"><path
         d="M -1,-1 H 103.8755 V 62.9875 H -1 Z"
         transform="translate(-2.5000001e-6)"
         id="path21" /></clipPath><clipPath
       clipPathUnits="userSpaceOnUse"
       id="clipPath22"><path
         d="M -1,-1 H 103.8755 V 62.9875 H -1 Z"
         transform="translate(-2.5000001e-6)"
         id="path22" /></clipPath><clipPath
       clipPathUnits="userSpaceOnUse"
       id="clipPath23"><path
         d="M -1,-1 H 103.8755 V 62.9875 H -1 Z"
         transform="translate(-2.5000001e-6)"
         id="path23" /></clipPath><clipPath
       clipPathUnits="userSpaceOnUse"
       id="clipPath24"><path
         d="M -1,-1 H 103.8755 V 62.9875 H -1 Z"
         transform="translate(-2.5000001e-6)"
         id="path24" /></clipPath></defs><g
     inkscape:label="Layer 1"
     inkscape:groupmode="layer"
     id="layer1"
     transform="translate(-274.74094,-68.981159)" /><g
     id="g1"
     inkscape:groupmode="layer"
     inkscape:label="1"
     transform="matrix(0.26458333,0,0,0.26458334,-54.740926,-68.981159)"><g
       id="g47"
       transform="translate(-5.1373944,55.226939)"><path
         d="m 87.9585,47.1866 c 0.3719,0.0726 0.7787,0.0545 1.1939,-0.036 -0.4243,0.0451 -0.8308,0.0545 -1.1939,0.036"
         style="fill:#000000;fill-opacity:1;fill-rule:nonzero;stroke:none"
         transform="matrix(1.3333333,0,0,-1.3333333,212.04667,288.14133)"
         clip-path="url(#clipPath2)"
         id="path25" /><path
         d="m 92.1807,40.5777 c -1.4278,-0.6682 -3.6774,0.2165 -4.9924,1.9862 -1.3238,1.77 -1.2373,3.7655 0.1729,4.4425 0.1647,0.072 0.3291,0.1355 0.5105,0.1715 0.0261,0 0.0607,0.0087 0.0868,0.0087 0.3631,0.0185 0.7696,0.0094 1.1939,-0.036 h 0.0085 c 1.1421,-0.2253 2.3534,-0.9929 3.1927,-2.1217 1.3238,-1.7697 1.2546,-3.774 -0.1729,-4.4512"
         style="fill:#000000;fill-opacity:1;fill-rule:nonzero;stroke:none"
         transform="matrix(1.3333333,0,0,-1.3333333,212.04667,288.14133)"
         clip-path="url(#clipPath3)"
         id="path26" /><path
         d="m 79.185,17.6706 c -0.1299,-0.072 -0.3719,-0.0901 -0.5105,0.0904 -0.3549,0.343 -0.9516,0.7495 -1.5574,0.8127 -0.9862,0.0992 -1.9811,0.0811 -2.9415,-0.1445 -0.9865,-0.2257 -2.0333,-0.2707 -2.8987,-1.2461 l -0.4065,0.3704 1.7133,4.1622 c 1.6004,5.3455 2.8638,10.826 4.7843,16.054 0.0952,0.2437 0.182,0.4872 0.2769,0.7313 0.8394,2.185 1.999,4.2885 3.5819,5.9502 1.523,1.5891 3.6774,2.6907 5.4337,3.2142 1.0381,0.3073 4.3951,0.2619 5.3643,-0.921 -0.0346,-0.2165 0.1125,-0.1442 0.0606,-0.3611 -0.8132,0.4065 -1.9122,0.6772 -2.9245,0.7673 h -0.0085 c -0.4152,0.0908 -0.822,0.1086 -1.1939,0.036 -0.0261,0 -0.0607,-0.0087 -0.0868,-0.0087 -0.3458,-0.0273 -0.6576,-0.0814 -0.9085,-0.1715 -1.0122,-0.3609 -1.8601,-1.4086 -2.2062,-2.5552 -0.2769,-0.8847 -0.5193,-2.1308 -0.3807,-3.2686 0.1645,-1.1648 0.199,-1.2912 1.3496,-2.6816 -0.0779,-0.2259 -0.441,-0.1987 -0.5882,-0.3793 -0.0173,-0.0272 -0.0346,-0.0541 -0.0433,-0.0904 -1.09,-3.8735 -3.0629,-10.5911 -4.5423,-15.7195 -0.4586,-1.5441 -0.9691,-3.2054 -1.3671,-4.6412"
         style="fill:#000000;fill-opacity:1;fill-rule:nonzero;stroke:none"
         transform="matrix(1.3333333,0,0,-1.3333333,212.04667,288.14133)"
         clip-path="url(#clipPath4)"
         id="path27" /><path
         d="m 58.4977,49.5346 c -0.4152,-0.6321 -1.1245,-1.0021 -1.5834,-1.6614 -0.3546,-0.5238 -0.6659,-0.9301 -1.0293,-1.499 0.199,0.6231 0.398,1.264 0.6055,1.8964 0.9,1.1466 2.0418,2.4557 2.6564,3.0246 1.1245,1.0292 3.0452,2.1401 4.5422,2.4015 1.1421,0.199 1.8255,0.2891 2.8293,0.1267 0.7611,-0.1267 1.9987,-0.5689 2.3706,-1.2824 0.424,-0.7764 0.5712,-1.9409 0.3722,-2.7986 -0.9777,-4.2166 -2.6822,-8.4246 -3.7724,-12.6139 -0.1647,-0.6682 -0.2248,-1.0381 0,-1.5713 0.1729,-0.415 0.7526,-0.7855 1.1421,-0.5686 0.796,0.4334 1.038,0.4876 1.5659,1.1378 0.6057,0.7676 1.3064,1.6521 1.9034,2.4287 0.4068,0.5327 0.9692,1.9954 1.194,2.2663 0.2165,0.2526 0.7095,0.3703 0.4759,-0.3072 -0.2421,-0.7311 -1.4187,-2.7536 -2.3014,-4.0989 -0.9256,-1.3816 -2.6564,-2.8443 -4.0145,-3.693 -1.2288,-0.7764 -2.1024,-1.0383 -3.5733,-1.1826 -0.8654,-0.0814 -1.6441,0.0901 -2.4662,0.3971 -1.0465,0.4062 -1.3235,0.7946 -1.5916,1.5891 -0.1993,0.6049 -0.4499,2.3026 -0.2685,2.9072 1.315,4.3883 2.2584,7.7293 3.5907,12.117 0.0694,0.6052 0.2166,0.9303 0.2857,1.5353 0.0519,0.3429 -0.2684,0.5958 -0.4674,0.8668 -0.4238,-0.0814 -0.6662,0.0269 -1.0381,-0.2259 -0.7095,-0.4967 -0.8308,-0.5596 -1.4278,-1.1917"
         style="fill:#000000;fill-opacity:1;fill-rule:nonzero;stroke:none"
         transform="matrix(1.3333333,0,0,-1.3333333,212.04667,288.14133)"
         clip-path="url(#clipPath5)"
         id="path28" /><path
         d="m 55.1755,45.1916 c -0.2942,-0.5235 -0.8915,-0.4065 -0.6576,0.2707 0.2424,0.6863 0.1729,0.0814 0.822,1.2011 0.2336,0.3971 0.6577,0.9751 1.1506,1.6072 C 56.283,47.6385 56.084,46.9973 55.885,46.3742 55.6685,46.0494 55.4437,45.6789 55.1755,45.1916"
         style="fill:#000000;fill-opacity:1;fill-rule:nonzero;stroke:none"
         transform="matrix(1.3333333,0,0,-1.3333333,212.04667,288.14133)"
         clip-path="url(#clipPath6)"
         id="path29" /><path
         d="m 50.7801,21.7519 c 0.1993,0.6231 0.398,1.2549 0.6058,1.8871 0.9,1.1556 2.0418,2.4559 2.6561,3.0339 1.1247,1.0292 3.0455,2.1399 4.5598,2.4018 1.1333,0.1893 1.8082,0.2885 2.8202,0.1261 0.7443,-0.1261 1.9902,-0.5689 2.3711,-1.2912 0.415,-0.7673 0.5621,-1.9321 0.3632,-2.7898 -0.9689,-4.2259 -2.6822,-8.4243 -3.7636,-12.6139 -0.1641,-0.6772 -0.2339,-1.0381 -0.0173,-1.571 0.1817,-0.4243 0.7699,-0.7855 1.1594,-0.5686 0.8044,0.4334 1.0295,0.4785 1.5573,1.1375 0.597,0.7677 1.3153,1.6524 1.912,2.4291 0.407,0.5323 0.9519,1.9953 1.1939,2.266 0.2078,0.244 0.6923,0.3702 0.4678,-0.3067 -0.2427,-0.7314 -1.4108,-2.763 -2.3106,-4.0995 -0.917,-1.3813 -2.656,-2.844 -3.9971,-3.7021 C 59.1296,7.3233 58.2384,7.0526 56.7763,6.9171 55.9108,6.8357 55.1234,7.0075 54.3189,7.3142 53.2633,7.7117 52.9863,8.1 52.7185,8.9036 c -0.2078,0.6049 -0.459,2.2933 -0.2682,2.9075 1.315,4.379 2.2581,7.7287 3.5904,12.1076 0.0691,0.6052 0.225,0.9392 0.2939,1.5441 0.0434,0.3432 -0.2679,0.5958 -0.4671,0.8668 -0.4323,-0.0813 -0.6835,0.0272 -1.0381,-0.2256 -0.7095,-0.4967 -0.8478,-0.5599 -1.4275,-1.1917 -0.4241,-0.6321 -1.1424,-1.0023 -1.5837,-1.6705 -0.3544,-0.5235 -0.6747,-0.93 -1.0381,-1.4899"
         style="fill:#000000;fill-opacity:1;fill-rule:nonzero;stroke:none"
         transform="matrix(1.3333333,0,0,-1.3333333,212.04667,288.14133)"
         clip-path="url(#clipPath7)"
         id="path30" /><path
         d="m 51.3859,23.639 c -0.2078,-0.6322 -0.4068,-1.264 -0.6058,-1.8871 -0.2163,-0.3248 -0.441,-0.7044 -0.7095,-1.1829 -0.2942,-0.5235 -0.8912,-0.4062 -0.6488,0.271 0.2338,0.6772 0.1644,0.0814 0.8135,1.2008 0.2333,0.3974 0.6489,0.9754 1.1506,1.5982"
         style="fill:#000000;fill-opacity:1;fill-rule:nonzero;stroke:none"
         transform="matrix(1.3333333,0,0,-1.3333333,212.04667,288.14133)"
         clip-path="url(#clipPath8)"
         id="path31" /><path
         d="m 44.663,47.4579 c -0.5621,-0.8217 -0.8391,-1.1647 -1.5659,-2.4919 -0.0085,-0.0182 -0.0258,-0.0363 -0.0431,-0.0542 0.2336,0.7223 0.4672,1.4536 0.7005,2.185 0.5799,0.957 1.3325,2.0945 2.6044,3.4038 1.0902,1.1197 3.5473,2.6368 5.0616,2.8985 1.1333,0.1896 1.9292,0.1805 3.0367,-0.0723 0.7702,-0.1806 1.6787,-0.578 2.0506,-1.3003 0.4065,-0.7673 0.6058,-1.8056 0.3118,-2.7629 -0.1125,-0.3339 -0.2165,-0.6681 -0.3291,-0.993 -0.4929,-0.6321 -0.917,-1.2101 -1.1506,-1.6072 -0.6491,-1.1194 -0.5796,-0.5148 -0.822,-1.2008 -0.2339,-0.6775 0.3634,-0.7945 0.6576,-0.271 0.2682,0.4873 0.493,0.8581 0.7095,1.1829 -1.0814,-3.386 -2.0854,-6.7178 -2.8814,-9.7605 -0.4583,-1.7428 -0.6573,-2.772 -0.9862,-4.2891 -0.2684,-0.0629 -0.3546,-0.415 -0.5017,-0.1174 -1.1248,0.9122 -0.9,0.7132 -1.4363,0.9391 -0.8048,0.343 -1.7048,0.4788 -2.6391,0.2257 -1.1332,-0.3067 -2.275,-0.379 -3.3655,-1.4899 -0.1732,0.0544 -0.2767,-0.0179 -0.4672,0.2168 1.5489,4.1083 3.7029,11.5484 5.0355,15.9364 0.1383,0.6775 0.3634,0.9301 0.4065,1.5441 0.0691,1.0386 -0.4411,0.6865 -0.6404,0.9572 -0.4323,-0.0723 -0.5797,0.0542 -0.9516,-0.1987 -0.7095,-0.4876 -0.7959,-0.5871 -1.4275,-1.1829 -0.4153,-0.6318 -0.917,-1.0293 -1.3671,-1.6974"
         style="fill:#000000;fill-opacity:1;fill-rule:nonzero;stroke:none"
         transform="matrix(1.3333333,0,0,-1.3333333,212.04667,288.14133)"
         clip-path="url(#clipPath9)"
         id="path32" /><path
         d="m 43.2612,46.2569 c 0.1559,0.2619 0.3203,0.5417 0.4933,0.8396 -0.2333,-0.7311 -0.4669,-1.4627 -0.7005,-2.1847 0.0085,-0.0093 0,-0.0093 0,-0.0093 -0.303,-0.4334 -0.8742,-0.1715 -0.6488,0.4785 0.2418,0.6775 0.2075,-0.2438 0.856,0.8759"
         style="fill:#000000;fill-opacity:1;fill-rule:nonzero;stroke:none"
         transform="matrix(1.3333333,0,0,-1.3333333,212.04667,288.14133)"
         clip-path="url(#clipPath10)"
         id="path33" /><path
         d="m 37.9491,20.2802 c 0.2248,0.7223 0.4586,1.4536 0.701,2.1943 0.0085,0.0088 0.0173,0.0266 0.0173,0.036 0.5794,0.957 1.3323,2.0764 2.5866,3.3678 1.0905,1.1194 3.5476,2.6365 5.0618,2.8891 1.1418,0.1987 1.9381,0.1896 3.0453,-0.0723 0.7614,-0.1715 1.6702,-0.5777 2.0506,-1.2912 0.4153,-0.7761 0.6057,-1.8056 0.2945,-2.7629 -0.1125,-0.3339 -0.2166,-0.6681 -0.3203,-1.002 -0.5017,-0.6228 -0.9173,-1.2008 -1.1506,-1.5982 -0.6491,-1.1194 -0.5797,-0.5236 -0.8135,-1.2008 -0.2424,-0.6772 0.3546,-0.7945 0.6488,-0.271 0.2685,0.4785 0.4932,0.8581 0.7095,1.1829 C 49.6987,18.366 48.695,15.0344 47.899,11.9914 47.4403,10.2487 47.2414,9.2194 46.9128,7.7029 46.6444,7.6394 46.5582,7.287 46.4111,7.5852 45.286,8.4969 45.5196,8.2987 44.9833,8.5243 44.17,8.8673 43.2703,9.0028 42.3445,8.7503 41.2024,8.4342 40.0603,8.3616 38.9701,7.2601 38.7969,7.3054 38.7017,7.2422 38.503,7.4769 c 1.5486,4.1083 3.7117,11.5484 5.0355,15.9361 0.1471,0.6775 0.3631,0.9301 0.4067,1.5353 0.0777,1.0474 -0.4416,0.6953 -0.6406,0.966 -0.4326,-0.081 -0.5797,0.0542 -0.9428,-0.1987 -0.7095,-0.4875 -0.8048,-0.587 -1.4363,-1.1829 -0.4153,-0.6409 -0.917,-1.029 -1.3672,-1.6974 -0.5624,-0.8217 -0.8393,-1.1738 -1.5658,-2.4919 -0.0173,-0.0272 -0.0261,-0.0454 -0.0434,-0.0632"
         style="fill:#000000;fill-opacity:1;fill-rule:nonzero;stroke:none"
         transform="matrix(1.3333333,0,0,-1.3333333,212.04667,288.14133)"
         clip-path="url(#clipPath11)"
         id="path34" /><path
         d="m 38.6501,22.4745 c -0.2424,-0.7407 -0.4762,-1.472 -0.701,-2.1943 -0.3027,-0.4337 -0.8739,-0.1715 -0.6488,0.4788 0.242,0.6769 0.2074,-0.2441 0.8563,0.8756 0.1559,0.2619 0.3203,0.5417 0.4935,0.8399"
         style="fill:#000000;fill-opacity:1;fill-rule:nonzero;stroke:none"
         transform="matrix(1.3333333,0,0,-1.3333333,212.04667,288.14133)"
         clip-path="url(#clipPath12)"
         id="path35" /><path
         d="m 34.9381,32.9389 c -1.1332,-0.307 -2.2841,-0.379 -3.3655,-1.4806 -0.1732,0.0451 -0.277,-0.0272 -0.4675,0.2078 1.5489,4.108 3.7032,11.5571 5.0355,15.9361 0.0694,0.6052 0.2251,0.9391 0.2945,1.544 0.0431,0.343 -0.5366,0.8309 -0.7441,1.1107 -0.4325,-0.0814 -0.4413,-0.0542 -0.8047,-0.3161 -0.7095,-0.4876 -0.8394,-0.5417 -1.4278,-1.1829 -0.4238,-0.6319 -0.8476,-1.065 -1.2975,-1.7337 -0.5626,-0.8215 -0.8393,-1.1645 -1.5661,-2.4828 -0.2942,-0.5327 -0.9346,-0.2708 -0.6922,0.4064 0.2423,0.686 -0.0088,0.0542 0.6488,1.1739 0.6489,1.1197 1.497,2.3836 3.1666,4.0992 1.0902,1.1194 3.6859,2.4828 5.1914,2.7447 1.1421,0.1987 1.938,0.1806 3.054,-0.0722 0.7614,-0.1715 1.6702,-0.5777 2.0506,-1.3003 0.4068,-0.7676 0.597,-1.7966 0.303,-2.7629 -0.1905,-0.578 -0.3809,-1.1557 -0.5626,-1.7337 -0.173,-0.2979 -0.3374,-0.578 -0.4933,-0.8396 -0.6485,-1.1197 -0.6142,-0.1987 -0.856,-0.8759 -0.2254,-0.65 0.3458,-0.9119 0.6488,-0.4785 -0.9519,-3.0249 -1.8428,-5.9774 -2.5523,-8.7131 -0.4586,-1.7516 -0.6576,-2.7811 -0.9867,-4.2977 -0.2682,-0.0544 -0.3544,-0.4062 -0.5018,-0.1173 -1.1333,0.9116 -0.8997,0.7223 -1.4363,0.9479 -0.8045,0.3342 -1.7042,0.4694 -2.6388,0.2166"
         style="fill:#000000;fill-opacity:1;fill-rule:nonzero;stroke:none"
         transform="matrix(1.3333333,0,0,-1.3333333,212.04667,288.14133)"
         clip-path="url(#clipPath13)"
         id="path36" /><path
         d="m 29.7816,25.3185 c -0.7095,-0.4876 -0.8308,-0.542 -1.4278,-1.1829 -0.4152,-0.6319 -0.8478,-1.0653 -1.2977,-1.7334 -0.5624,-0.822 -0.8393,-1.165 -1.5661,-2.4831 -0.2943,-0.533 -0.9258,-0.271 -0.692,0.4062 0.2424,0.6862 -0.0087,0.0541 0.6489,1.1738 0.6488,1.1103 1.5055,2.3836 3.1666,4.0904 1.0899,1.1285 3.6856,2.4919 5.1999,2.7538 1.1332,0.1985 1.938,0.1803 3.0455,-0.0722 0.7614,-0.1806 1.6699,-0.578 2.0506,-1.3006 0.4155,-0.767 0.597,-1.7966 0.303,-2.7626 -0.182,-0.5689 -0.3722,-1.1376 -0.5451,-1.6974 0,-0.0094 -0.0088,-0.0272 -0.0173,-0.036 -0.1732,-0.2982 -0.3376,-0.578 -0.4935,-0.8399 -0.6489,-1.1197 -0.6143,-0.1987 -0.8563,-0.8756 -0.2251,-0.6503 0.3461,-0.9125 0.6488,-0.4788 C 36.9972,17.2556 36.1151,14.2937 35.3965,11.558 34.9381,9.8155 34.7389,8.7863 34.4103,7.2692 34.1422,7.215 34.0557,6.8539 33.9086,7.1518 c -1.1251,0.9119 -0.9,0.7135 -1.4363,0.9388 -0.8048,0.3436 -1.7045,0.4785 -2.6388,0.226 -1.1333,-0.3073 -2.2754,-0.3793 -3.3658,-1.4809 -0.173,0.0451 -0.2767,-0.0269 -0.4672,0.2075 1.5486,4.1086 3.7029,11.5575 5.0355,15.9367 0.0691,0.6049 0.225,0.9388 0.303,1.544 0.0346,0.343 -0.5451,0.8306 -0.7529,1.1016 -0.4326,-0.0723 -0.4326,-0.0542 -0.8045,-0.307"
         style="fill:#000000;fill-opacity:1;fill-rule:nonzero;stroke:none"
         transform="matrix(1.3333333,0,0,-1.3333333,212.04667,288.14133)"
         clip-path="url(#clipPath14)"
         id="path37" /><path
         d="m 21.1294,42.8261 c -2.4054,-0.7855 -4.8364,-0.2528 -5.4161,1.1736 -0.5797,1.4357 0.8997,3.2417 3.3049,4.0271 2.3967,0.7855 4.828,0.2529 5.4164,-1.1829 0.5794,-1.4266 -0.9085,-3.2323 -3.3052,-4.0178"
         style="fill:#000000;fill-opacity:1;fill-rule:nonzero;stroke:none"
         transform="matrix(1.3333333,0,0,-1.3333333,212.04667,288.14133)"
         clip-path="url(#clipPath15)"
         id="path38" /><path
         d="m 12.486,36.2166 c -0.4328,-0.0723 -0.6749,0.0269 -1.0383,-0.226 -0.7095,-0.4875 -0.796,-0.587 -1.4017,-1.2279 C 9.6392,34.1308 9.1723,33.6161 8.7134,32.9479 8.1601,32.1262 7.8398,31.413 7.113,30.0949 6.8187,29.562 6.222,29.8689 6.4641,30.5464 c 0.2336,0.686 -0.0433,-0.0272 0.6055,1.0922 0.6576,1.1109 1.9295,3.3228 3.5992,5.0295 1.0904,1.1285 3.219,2.3293 4.7242,2.5912 1.1423,0.1899 1.7824,0.4694 2.8553,0.0904 0.7268,-0.2619 1.7909,-0.8308 2.1716,-1.544 0.4068,-0.7677 0.4587,-1.8692 0.2594,-2.7179 -0.9686,-4.2253 -2.5869,-8.4963 -3.6595,-12.6947 -0.1732,-0.6681 -0.303,-1.2914 -0.0522,-1.9323 0.1732,-0.4244 0.6925,-0.7132 1.0814,-0.4967 0.8051,0.4334 1.3153,0.7764 1.8434,1.4355 0.6055,0.7676 1.1333,1.6435 1.7303,2.429 0.4065,0.5326 0.718,1.7337 1.0553,1.8238 0.5278,0.1355 0.6664,0.0723 0.4417,-0.6049 -0.2512,-0.7313 -1.2031,-2.0948 -2.094,-3.4311 -0.9261,-1.3904 -2.6994,-2.7807 -4.0493,-3.6297 -1.2197,-0.7676 -2.1024,-1.0384 -3.5818,-1.1826 -0.8652,-0.0814 -1.7825,-0.1267 -2.596,0.1802 -1.0466,0.3975 -1.5398,0.9032 -1.8167,1.6977 -0.1905,0.6052 -0.3547,1.5259 -0.1905,2.1399 1.2115,4.4155 2.5441,8.6048 3.8676,12.9929 0.0691,0.6049 0.2335,0.9388 0.3027,1.544 0.0349,0.343 -0.2682,0.5868 -0.4757,0.8578"
         style="fill:#000000;fill-opacity:1;fill-rule:nonzero;stroke:none"
         transform="matrix(1.3333333,0,0,-1.3333333,212.04667,288.14133)"
         clip-path="url(#clipPath16)"
         id="path39" /><path
         d="m 50.4082,61.5073 c 28.0933,1.0202 51.48,-11.8644 52.0424,-28.6767 C 103.0218,16.0274 80.5694,1.4907 52.4673,0.4793 24.3737,-0.5318 0.9876,12.3435 0.4249,29.1557 -0.1463,45.9587 22.3061,60.4959 50.4082,61.5073"
         style="fill:none;stroke:#000000;stroke-width:0.8501;stroke-linecap:butt;stroke-linejoin:miter;stroke-miterlimit:2.613;stroke-dasharray:none;stroke-opacity:1"
         transform="matrix(1.3333333,0,0,-1.3333333,212.04667,288.14133)"
         clip-path="url(#clipPath17)"
         id="path40" /><path
         d="m 19.0182,48.0268 c 2.3967,0.7855 4.828,0.2529 5.4164,-1.1829 0.5794,-1.4266 -0.9085,-3.2323 -3.3052,-4.0178 -2.4054,-0.7855 -4.8364,-0.2528 -5.4161,1.1736 -0.5797,1.4357 0.8997,3.2417 3.3049,4.0271 z"
         style="fill:none;stroke:#000000;stroke-width:0.216;stroke-linecap:butt;stroke-linejoin:miter;stroke-miterlimit:2.613;stroke-dasharray:none;stroke-opacity:1"
         transform="matrix(1.3333333,0,0,-1.3333333,212.04667,288.14133)"
         clip-path="url(#clipPath18)"
         id="path41" /><path
         d="m 43.054,44.9025 c -0.303,-0.4334 -0.8742,-0.1715 -0.6491,0.4785 0.2421,0.6772 0.2078,-0.2438 0.8563,0.8759 0.1559,0.2616 0.3203,0.5414 0.4933,0.8396 0.5799,0.9573 1.3325,2.0948 2.6044,3.4041 1.0902,1.1197 3.5473,2.6363 5.0616,2.8982 1.1333,0.1896 1.9292,0.1808 3.0367,-0.0723 0.7702,-0.1806 1.6787,-0.5777 2.0506,-1.3 0.4065,-0.7676 0.6058,-1.8059 0.3115,-2.7629 -0.1122,-0.3342 -0.2162,-0.6681 -0.3288,-0.993 C 56.283,47.6382 56.084,46.9973 55.885,46.3742"
         style="fill:none;stroke:#000000;stroke-width:0.216;stroke-linecap:butt;stroke-linejoin:miter;stroke-miterlimit:2.613;stroke-dasharray:none;stroke-opacity:1"
         transform="matrix(1.3333333,0,0,-1.3333333,212.04667,288.14133)"
         clip-path="url(#clipPath19)"
         id="path42" /><path
         d="m 87.8717,47.1779 c -0.3458,-0.0273 -0.6576,-0.0814 -0.9085,-0.1715 -1.0122,-0.3615 -1.8601,-1.4086 -2.2062,-2.5555 -0.2769,-0.8844 -0.5193,-2.1305 -0.3807,-3.2683 0.1645,-1.1648 0.199,-1.2912 1.3496,-2.6819 -0.0779,-0.2256 -0.441,-0.1984 -0.5882,-0.379"
         style="fill:none;stroke:#000000;stroke-width:0.216;stroke-linecap:butt;stroke-linejoin:miter;stroke-miterlimit:2.613;stroke-dasharray:none;stroke-opacity:1"
         transform="matrix(1.3333333,0,0,-1.3333333,212.04667,288.14133)"
         clip-path="url(#clipPath20)"
         id="path43" /><path
         d="m 77.368,37.7697 c 0.0952,0.2437 0.182,0.4872 0.2769,0.731 0.8394,2.1853 1.999,4.2888 3.5819,5.9502 1.523,1.5894 3.6774,2.6907 5.4337,3.2145 1.0381,0.3067 4.3951,0.2619 5.3643,-0.921 -0.0346,-0.2165 0.1125,-0.1442 0.0606,-0.3611 -0.8132,0.4062 -1.9122,0.6769 -2.9245,0.7673"
         style="fill:none;stroke:#000000;stroke-width:0.216;stroke-linecap:butt;stroke-linejoin:miter;stroke-miterlimit:2.613;stroke-dasharray:none;stroke-opacity:1"
         transform="matrix(1.3333333,0,0,-1.3333333,212.04667,288.14133)"
         clip-path="url(#clipPath21)"
         id="path44" /><path
         d="m 89.1609,47.1506 c 1.1421,-0.2253 2.3534,-0.9929 3.1927,-2.1217 1.3238,-1.7697 1.2546,-3.774 -0.1729,-4.4512 -1.4278,-0.6682 -3.6774,0.2165 -4.9924,1.9862 -1.3238,1.77 -1.2373,3.7655 0.1729,4.4425 0.1647,0.072 0.3291,0.1355 0.5105,0.1715 0.0261,0 0.0607,0.0087 0.0868,0.0087 0.3719,0.0726 0.7787,0.0548 1.1939,-0.036 z"
         style="fill:none;stroke:#000000;stroke-width:0.216;stroke-linecap:butt;stroke-linejoin:miter;stroke-miterlimit:2.613;stroke-dasharray:none;stroke-opacity:1"
         transform="matrix(1.3333333,0,0,-1.3333333,212.04667,288.14133)"
         clip-path="url(#clipPath22)"
         id="path45" /><path
         d="m 73.146,37.6702 4.222,0.0995 0.9516,0.0178"
         style="fill:none;stroke:#000000;stroke-width:0.8501;stroke-linecap:round;stroke-linejoin:miter;stroke-miterlimit:2.613;stroke-dasharray:none;stroke-opacity:1"
         transform="matrix(1.3333333,0,0,-1.3333333,212.04667,288.14133)"
         clip-path="url(#clipPath23)"
         id="path46" /><path
         d="m 84.0909,38.0945 1.0468,0.0272 4.127,0.0992"
         style="fill:none;stroke:#000000;stroke-width:0.8501;stroke-linecap:round;stroke-linejoin:miter;stroke-miterlimit:2.613;stroke-dasharray:none;stroke-opacity:1"
         transform="matrix(1.3333333,0,0,-1.3333333,212.04667,288.14133)"
         clip-path="url(#clipPath24)"
         id="path47" /></g></g></svg>
