<?xml version="1.0" encoding="UTF-8" standalone="no"?>
<!-- Created with Inkscape (http://www.inkscape.org/) -->

<svg
   width="293.84396mm"
   height="146.23517mm"
   viewBox="0 0 293.84397 146.23517"
   version="1.1"
   id="svg5"
   inkscape:version="1.1.1 (3bf5ae0d25, 2021-09-20)"
   sodipodi:docname="ExNets.svg"
   xmlns:inkscape="http://www.inkscape.org/namespaces/inkscape"
   xmlns:sodipodi="http://sodipodi.sourceforge.net/DTD/sodipodi-0.dtd"
   xmlns="http://www.w3.org/2000/svg"
   xmlns:svg="http://www.w3.org/2000/svg">
  <sodipodi:namedview
     id="namedview7"
     pagecolor="#ffffff"
     bordercolor="#666666"
     borderopacity="1.0"
     inkscape:pageshadow="2"
     inkscape:pageopacity="0.0"
     inkscape:pagecheckerboard="0"
     inkscape:document-units="mm"
     showgrid="false"
     fit-margin-top="3"
     fit-margin-left="3"
     fit-margin-right="3"
     fit-margin-bottom="3"
     inkscape:zoom="0.64052329"
     inkscape:cx="448.85175"
     inkscape:cy="440.26502"
     inkscape:window-width="1920"
     inkscape:window-height="1112"
     inkscape:window-x="-8"
     inkscape:window-y="-8"
     inkscape:window-maximized="1"
     inkscape:current-layer="layer1" />
  <defs
     id="defs2" />
  <g
     inkscape:label="Layer 1"
     inkscape:groupmode="layer"
     id="layer1"
     transform="translate(13.634828,-31.58646)">
    <g
       id="PajekNet"
       inkscape:label="PajekNetwork"
       transform="matrix(0.26458333,0,0,0.26458333,-22.795078,26.651606)">

<!-- Arc:     1    2 -->

<g
   transform="translate(77.83,154.99)"
   id="g855">
<g
   transform="rotate(132.44)"
   id="g853">
<path
   d="M 0,0 -2,5 10,0 -2,-5 Z"
   style="fill:#999999"
   id="path851" />

</g>
</g>

<line
   x1="178.73"
   y1="44.639999"
   x2="77.830002"
   y2="154.99001"
   style="stroke:#999999;stroke-width:2"
   id="line857" />

<!-- Arc:     1    4 -->

<g
   transform="translate(375.56,295.74)"
   id="g863">
<g
   transform="rotate(51.91)"
   id="g861">
<path
   d="M 0,0 -2,5 10,0 -2,-5 Z"
   style="fill:#999999"
   id="path859" />

</g>
</g>

<line
   x1="178.73"
   y1="44.639999"
   x2="375.56"
   y2="295.73999"
   style="stroke:#999999;stroke-width:2"
   id="line865" />

<!-- Arc:     1    5 -->

<g
   transform="translate(188.16,354.41)"
   id="g871">
<g
   transform="rotate(88.26)"
   id="g869">
<path
   d="M 0,0 -2,5 10,0 -2,-5 Z"
   style="fill:#999999"
   id="path867" />

</g>
</g>

<line
   x1="178.73"
   y1="44.639999"
   x2="188.16"
   y2="354.41"
   style="stroke:#999999;stroke-width:2"
   id="line873" />

<!-- Arc:     2    3 -->

<g
   transform="translate(214.7,239.52)"
   id="g879">
<g
   transform="rotate(23.04)"
   id="g877">
<path
   d="M 0,0 -2,5 10,0 -2,-5 Z"
   style="fill:#999999"
   id="path875" />

</g>
</g>

<line
   x1="60.610001"
   y1="174"
   x2="214.7"
   y2="239.52"
   style="stroke:#999999;stroke-width:2"
   id="line881" />

<!-- Arc:     2    5 -->

<g
   transform="translate(175.43,358.28)"
   id="g887">
<g
   transform="rotate(58.07)"
   id="g885">
<path
   d="M 0,0 -2,5 10,0 -2,-5 Z"
   style="fill:#999999"
   id="path883" />

</g>
</g>

<line
   x1="60.610001"
   y1="174"
   x2="175.42999"
   y2="358.28"
   style="stroke:#999999;stroke-width:2"
   id="line889" />

<!-- Arc:     2    6 -->

<g
   transform="translate(138.71,497.08)"
   id="g895">
<g
   transform="rotate(76.41)"
   id="g893">
<path
   d="M 0,0 -2,5 10,0 -2,-5 Z"
   style="fill:#999999"
   id="path891" />

</g>
</g>

<line
   x1="60.610001"
   y1="174"
   x2="138.71001"
   y2="497.07999"
   style="stroke:#999999;stroke-width:2"
   id="line897" />

<!-- Arc:     3    4 -->

<g
   transform="translate(367.79,305.83)"
   id="g903">
<g
   transform="rotate(23.49)"
   id="g901">
<path
   d="M 0,0 -2,5 10,0 -2,-5 Z"
   style="fill:#999999"
   id="path899" />

</g>
</g>

<line
   x1="238.31"
   y1="249.55"
   x2="367.79001"
   y2="305.82999"
   style="stroke:#999999;stroke-width:2"
   id="line905" />

<!-- Arc:     3    5 -->

<g
   transform="translate(198.14,356.07)"
   id="g911">
<g
   transform="rotate(110.66)"
   id="g909">
<path
   d="M 0,0 -2,5 10,0 -2,-5 Z"
   style="fill:#999999"
   id="path907" />

</g>
</g>

<line
   x1="238.31"
   y1="249.55"
   x2="198.14"
   y2="356.07001"
   style="stroke:#999999;stroke-width:2"
   id="line913" />

<!-- Arc:     4    5 -->

<g
   transform="translate(213.43,372.2)"
   id="g919">
<g
   transform="rotate(162.45)"
   id="g917">
<path
   d="M 0,0 -2,5 10,0 -2,-5 Z"
   style="fill:#999999"
   id="path915" />

</g>
</g>

<line
   x1="391.37"
   y1="315.94"
   x2="213.42999"
   y2="372.20001"
   style="stroke:#999999;stroke-width:2"
   id="line921" />

<!-- Arc:     4    6 -->

<g
   transform="translate(164.5,505.52)"
   id="g927">
<g
   transform="rotate(140.12)"
   id="g925">
<path
   d="M 0,0 -2,5 10,0 -2,-5 Z"
   style="fill:#999999"
   id="path923" />

</g>
</g>

<line
   x1="391.37"
   y1="315.94"
   x2="164.5"
   y2="505.51999"
   style="stroke:#999999;stroke-width:2"
   id="line929" />

<!-- Arc:     5    6 -->

<g
   transform="translate(152.4,497.48)"
   id="g935">
<g
   transform="rotate(107.32)"
   id="g933">
<path
   d="M 0,0 -2,5 10,0 -2,-5 Z"
   style="fill:#999999"
   id="path931" />

</g>
</g>

<line
   x1="189.00999"
   y1="380.04001"
   x2="152.39999"
   y2="497.48001"
   style="stroke:#999999;stroke-width:2"
   id="line937" />


<!-- Vertex:     1 -->

<circle
   cx="178.73"
   cy="44.639999"
   style="fill:#d8f2ff;stroke:#000000;stroke-width:0.5"
   id="ellipse939"
   r="14.4" />

<text
   x="178.73"
   y="49.639999"
   style="font-weight:bold;font-size:15px;font-family:Arial;text-anchor:middle;fill:#ad0000"
   id="text941">w1</text>

<!-- Vertex:     2 -->

<circle
   cx="60.610001"
   cy="174"
   style="fill:#d8f2ff;stroke:#000000;stroke-width:0.5"
   id="ellipse943"
   r="14.4" />

<text
   x="60.610001"
   y="179"
   style="font-weight:bold;font-size:15px;font-family:Arial;text-anchor:middle;fill:#ad0000"
   id="text945">w2</text>

<!-- Vertex:     3 -->

<circle
   cx="238.31"
   cy="249.55"
   style="fill:#d8f2ff;stroke:#000000;stroke-width:0.5"
   id="ellipse947"
   r="14.4" />

<text
   x="238.31"
   y="254.55"
   style="font-weight:bold;font-size:15px;font-family:Arial;text-anchor:middle;fill:#ad0000"
   id="text949">w3</text>

<!-- Vertex:     4 -->

<circle
   cx="391.37"
   cy="315.94"
   style="fill:#d8f2ff;stroke:#000000;stroke-width:0.5"
   id="ellipse951"
   r="14.4" />

<text
   x="391.37"
   y="320.94"
   style="font-weight:bold;font-size:15px;font-family:Arial;text-anchor:middle;fill:#ad0000"
   id="text953">w4</text>

<!-- Vertex:     5 -->

<circle
   cx="189.00999"
   cy="380.04001"
   style="fill:#d8f2ff;stroke:#000000;stroke-width:0.5"
   id="ellipse955"
   r="14.4" />

<text
   x="189.00999"
   y="385.04001"
   style="font-weight:bold;font-size:15px;font-family:Arial;text-anchor:middle;fill:#ad0000"
   id="text957">w5</text>

<!-- Vertex:     6 -->

<circle
   cx="144.84"
   cy="521.98999"
   style="fill:#d8f2ff;stroke:#000000;stroke-width:0.5"
   id="ellipse959"
   r="14.4" />

<text
   x="144.84"
   y="526.98999"
   style="font-weight:bold;font-size:15px;font-family:Arial;text-anchor:middle;fill:#ad0000"
   id="text961">w6</text>

</g>
    <g
       id="PajekNet-3"
       inkscape:label="PajekNetwork"
       transform="matrix(0.26458333,0,0,0.26458333,73.864789,17.40248)">

<!-- Arc:     1    7 -->

<g
   transform="translate(384.58,537.48)"
   id="g1073">
<g
   transform="rotate(5.5)"
   id="g1071">
<path
   d="M 0,0 -2,5 10,0 -2,-5 Z"
   style="fill:#999999"
   id="path1069" />

</g>
</g>

<line
   x1="109.76"
   y1="511.01999"
   x2="384.57999"
   y2="537.47998"
   style="stroke:#999999;stroke-width:2"
   id="line1075" />

<!-- Arc:     1    8 -->

<g
   transform="translate(384.55,486.78)"
   id="g1081">
<g
   transform="rotate(-5.04)"
   id="g1079">
<path
   d="M 0,0 -2,5 10,0 -2,-5 Z"
   style="fill:#999999"
   id="path1077" />

</g>
</g>

<line
   x1="109.76"
   y1="511.01999"
   x2="384.54999"
   y2="486.78"
   style="stroke:#999999;stroke-width:2"
   id="line1083" />

<!-- Arc:     1    9 -->

<g
   transform="translate(385.34,435.7)"
   id="g1089">
<g
   transform="rotate(-15.29)"
   id="g1087">
<path
   d="M 0,0 -2,5 10,0 -2,-5 Z"
   style="fill:#999999"
   id="path1085" />

</g>
</g>

<line
   x1="109.76"
   y1="511.01999"
   x2="385.34"
   y2="435.70001"
   style="stroke:#999999;stroke-width:2"
   id="line1091" />

<!-- Arc:     2    7 -->

<g
   transform="translate(385.99,531.32)"
   id="g1097">
<g
   transform="rotate(19.83)"
   id="g1095">
<path
   d="M 0,0 -2,5 10,0 -2,-5 Z"
   style="fill:#999999"
   id="path1093" />

</g>
</g>

<line
   x1="109.76"
   y1="431.69"
   x2="385.98999"
   y2="531.32001"
   style="stroke:#999999;stroke-width:2"
   id="line1099" />

<!-- Arc:     2   10 -->

<g
   transform="translate(384.92,378.36)"
   id="g1105">
<g
   transform="rotate(-10.97)"
   id="g1103">
<path
   d="M 0,0 -2,5 10,0 -2,-5 Z"
   style="fill:#999999"
   id="path1101" />

</g>
</g>

<line
   x1="109.76"
   y1="431.69"
   x2="384.92001"
   y2="378.35999"
   style="stroke:#999999;stroke-width:2"
   id="line1107" />

<!-- Arc:     2   11 -->

<g
   transform="translate(386.13,327.09)"
   id="g1113">
<g
   transform="rotate(-20.73)"
   id="g1111">
<path
   d="M 0,0 -2,5 10,0 -2,-5 Z"
   style="fill:#999999"
   id="path1109" />

</g>
</g>

<line
   x1="109.76"
   y1="431.69"
   x2="386.13"
   y2="327.09"
   style="stroke:#999999;stroke-width:2"
   id="line1115" />

<!-- Arc:     3    7 -->

<g
   transform="translate(388.35,526.47)"
   id="g1121">
<g
   transform="rotate(32)"
   id="g1119">
<path
   d="M 0,0 -2,5 10,0 -2,-5 Z"
   style="fill:#999999"
   id="path1117" />

</g>
</g>

<line
   x1="109.76"
   y1="352.35999"
   x2="388.35001"
   y2="526.46997"
   style="stroke:#999999;stroke-width:2"
   id="line1123" />

<!-- Arc:     3    8 -->

<g
   transform="translate(386.65,474.15)"
   id="g1129">
<g
   transform="rotate(23.74)"
   id="g1127">
<path
   d="M 0,0 -2,5 10,0 -2,-5 Z"
   style="fill:#999999"
   id="path1125" />

</g>
</g>

<line
   x1="109.76"
   y1="352.35999"
   x2="386.64999"
   y2="474.14999"
   style="stroke:#999999;stroke-width:2"
   id="line1131" />

<!-- Arc:     3    9 -->

<g
   transform="translate(385.23,422.74)"
   id="g1137">
<g
   transform="rotate(14.33)"
   id="g1135">
<path
   d="M 0,0 -2,5 10,0 -2,-5 Z"
   style="fill:#999999"
   id="path1133" />

</g>
</g>

<line
   x1="109.76"
   y1="352.35999"
   x2="385.23001"
   y2="422.73999"
   style="stroke:#999999;stroke-width:2"
   id="line1139" />

<!-- Arc:     3   11 -->

<g
   transform="translate(384.63,320.98)"
   id="g1145">
<g
   transform="rotate(-6.51)"
   id="g1143">
<path
   d="M 0,0 -2,5 10,0 -2,-5 Z"
   style="fill:#999999"
   id="path1141" />

</g>
</g>

<line
   x1="109.76"
   y1="352.35999"
   x2="384.63"
   y2="320.98001"
   style="stroke:#999999;stroke-width:2"
   id="line1147" />

<!-- Arc:     3   12 -->

<g
   transform="translate(385.55,269.85)"
   id="g1153">
<g
   transform="rotate(-16.66)"
   id="g1151">
<path
   d="M 0,0 -2,5 10,0 -2,-5 Z"
   style="fill:#999999"
   id="path1149" />

</g>
</g>

<line
   x1="109.76"
   y1="352.35999"
   x2="385.54999"
   y2="269.85001"
   style="stroke:#999999;stroke-width:2"
   id="line1155" />

<!-- Arc:     4    8 -->

<g
   transform="translate(389.11,469.8)"
   id="g1161">
<g
   transform="rotate(35.16)"
   id="g1159">
<path
   d="M 0,0 -2,5 10,0 -2,-5 Z"
   style="fill:#999999"
   id="path1157" />

</g>
</g>

<line
   x1="109.76"
   y1="273.03"
   x2="389.10999"
   y2="469.79999"
   style="stroke:#999999;stroke-width:2"
   id="line1163" />

<!-- Arc:     4   10 -->

<g
   transform="translate(385.74,365.45)"
   id="g1169">
<g
   transform="rotate(18.51)"
   id="g1167">
<path
   d="M 0,0 -2,5 10,0 -2,-5 Z"
   style="fill:#999999"
   id="path1165" />

</g>
</g>

<line
   x1="109.76"
   y1="273.03"
   x2="385.73999"
   y2="365.45001"
   style="stroke:#999999;stroke-width:2"
   id="line1171" />

<!-- Arc:     4   11 -->

<g
   transform="translate(384.75,314.03)"
   id="g1177">
<g
   transform="rotate(8.48)"
   id="g1175">
<path
   d="M 0,0 -2,5 10,0 -2,-5 Z"
   style="fill:#999999"
   id="path1173" />

</g>
</g>

<line
   x1="109.76"
   y1="273.03"
   x2="384.75"
   y2="314.03"
   style="stroke:#999999;stroke-width:2"
   id="line1179" />

<!-- Arc:     4   13 -->

<g
   transform="translate(385.03,212.3)"
   id="g1185">
<g
   transform="rotate(-12.44)"
   id="g1183">
<path
   d="M 0,0 -2,5 10,0 -2,-5 Z"
   style="fill:#999999"
   id="path1181" />

</g>
</g>

<line
   x1="109.76"
   y1="273.03"
   x2="385.03"
   y2="212.3"
   style="stroke:#999999;stroke-width:2"
   id="line1187" />

<!-- Arc:     4   14 -->

<g
   transform="translate(386.32,160.97)"
   id="g1193">
<g
   transform="rotate(-22.06)"
   id="g1191">
<path
   d="M 0,0 -2,5 10,0 -2,-5 Z"
   style="fill:#999999"
   id="path1189" />

</g>
</g>

<line
   x1="109.76"
   y1="273.03"
   x2="386.32001"
   y2="160.97"
   style="stroke:#999999;stroke-width:2"
   id="line1195" />

<!-- Arc:     5    7 -->

<g
   transform="translate(393.28,520.7)"
   id="g1201">
<g
   transform="rotate(49.07)"
   id="g1199">
<path
   d="M 0,0 -2,5 10,0 -2,-5 Z"
   style="fill:#999999"
   id="path1197" />

</g>
</g>

<line
   x1="109.76"
   y1="193.7"
   x2="393.28"
   y2="520.70001"
   style="stroke:#999999;stroke-width:2"
   id="line1203" />

<!-- Arc:     5    8 -->

<g
   transform="translate(391.66,466.7)"
   id="g1209">
<g
   transform="rotate(44.08)"
   id="g1207">
<path
   d="M 0,0 -2,5 10,0 -2,-5 Z"
   style="fill:#999999"
   id="path1205" />

</g>
</g>

<line
   x1="109.76"
   y1="193.7"
   x2="391.66"
   y2="466.70001"
   style="stroke:#999999;stroke-width:2"
   id="line1211" />

<!-- Arc:     5    9 -->

<g
   transform="translate(389.9,413.2)"
   id="g1217">
<g
   transform="rotate(38.08)"
   id="g1215">
<path
   d="M 0,0 -2,5 10,0 -2,-5 Z"
   style="fill:#999999"
   id="path1213" />

</g>
</g>

<line
   x1="109.76"
   y1="193.7"
   x2="389.89999"
   y2="413.20001"
   style="stroke:#999999;stroke-width:2"
   id="line1219" />

<!-- Arc:     5   11 -->

<g
   transform="translate(386.35,308.25)"
   id="g1225">
<g
   transform="rotate(22.5)"
   id="g1223">
<path
   d="M 0,0 -2,5 10,0 -2,-5 Z"
   style="fill:#999999"
   id="path1221" />

</g>
</g>

<line
   x1="109.76"
   y1="193.7"
   x2="386.35001"
   y2="308.25"
   style="stroke:#999999;stroke-width:2"
   id="line1227" />

<!-- Arc:     5   12 -->

<g
   transform="translate(385.1,256.67)"
   id="g1233">
<g
   transform="rotate(12.88)"
   id="g1231">
<path
   d="M 0,0 -2,5 10,0 -2,-5 Z"
   style="fill:#999999"
   id="path1229" />

</g>
</g>

<line
   x1="109.76"
   y1="193.7"
   x2="385.10001"
   y2="256.67001"
   style="stroke:#999999;stroke-width:2"
   id="line1235" />

<!-- Arc:     5   14 -->

<g
   transform="translate(384.7,154.93)"
   id="g1241">
<g
   transform="rotate(-8.03)"
   id="g1239">
<path
   d="M 0,0 -2,5 10,0 -2,-5 Z"
   style="fill:#999999"
   id="path1237" />

</g>
</g>

<line
   x1="109.76"
   y1="193.7"
   x2="384.70001"
   y2="154.92999"
   style="stroke:#999999;stroke-width:2"
   id="line1243" />

<!-- Arc:     6    8 -->

<g
   transform="translate(393.95,464.61)"
   id="g1249">
<g
   transform="rotate(50.94)"
   id="g1247">
<path
   d="M 0,0 -2,5 10,0 -2,-5 Z"
   style="fill:#999999"
   id="path1245" />

</g>
</g>

<line
   x1="109.76"
   y1="114.38"
   x2="393.95001"
   y2="464.60999"
   style="stroke:#999999;stroke-width:2"
   id="line1251" />

<!-- Arc:     6   11 -->

<g
   transform="translate(388.85,303.58)"
   id="g1257">
<g
   transform="rotate(34.13)"
   id="g1255">
<path
   d="M 0,0 -2,5 10,0 -2,-5 Z"
   style="fill:#999999"
   id="path1253" />

</g>
</g>

<line
   x1="109.76"
   y1="114.38"
   x2="388.85001"
   y2="303.57999"
   style="stroke:#999999;stroke-width:2"
   id="line1259" />

<!-- Arc:     6   13 -->

<g
   transform="translate(385.58,199.36)"
   id="g1265">
<g
   transform="rotate(17.13)"
   id="g1263">
<path
   d="M 0,0 -2,5 10,0 -2,-5 Z"
   style="fill:#999999"
   id="path1261" />

</g>
</g>

<line
   x1="109.76"
   y1="114.38"
   x2="385.57999"
   y2="199.36"
   style="stroke:#999999;stroke-width:2"
   id="line1267" />

<!-- Arc:     6   15 -->

<g
   transform="translate(384.51,97.52)"
   id="g1273">
<g
   transform="rotate(-3.51)"
   id="g1271">
<path
   d="M 0,0 -2,5 10,0 -2,-5 Z"
   style="fill:#999999"
   id="path1269" />

</g>
</g>

<line
   x1="109.76"
   y1="114.38"
   x2="384.51001"
   y2="97.519997"
   style="stroke:#999999;stroke-width:2"
   id="line1275" />


<!-- Vertex:     1 -->

<circle
   cx="109.76"
   cy="511.01999"
   style="fill:#d8f2ff;stroke:#000000;stroke-width:0.5"
   id="ellipse1277"
   r="14.4" />

<text
   x="109.76"
   y="516.02002"
   style="font-weight:bold;font-size:15px;font-family:Arial;text-anchor:middle;fill:#ad0000"
   id="text1279">w1</text>

<!-- Vertex:     2 -->

<circle
   cx="109.76"
   cy="431.69"
   style="fill:#d8f2ff;stroke:#000000;stroke-width:0.5"
   id="ellipse1281"
   r="14.4" />

<text
   x="109.76"
   y="436.69"
   style="font-weight:bold;font-size:15px;font-family:Arial;text-anchor:middle;fill:#ad0000"
   id="text1283">w2</text>

<!-- Vertex:     3 -->

<circle
   cx="109.76"
   cy="352.35999"
   style="fill:#d8f2ff;stroke:#000000;stroke-width:0.5"
   id="ellipse1285"
   r="14.4" />

<text
   x="109.76"
   y="357.35999"
   style="font-weight:bold;font-size:15px;font-family:Arial;text-anchor:middle;fill:#ad0000"
   id="text1287">w3</text>

<!-- Vertex:     4 -->

<circle
   cx="109.76"
   cy="273.03"
   style="fill:#d8f2ff;stroke:#000000;stroke-width:0.5"
   id="ellipse1289"
   r="14.4" />

<text
   x="109.76"
   y="278.03"
   style="font-weight:bold;font-size:15px;font-family:Arial;text-anchor:middle;fill:#ad0000"
   id="text1291">w4</text>

<!-- Vertex:     5 -->

<circle
   cx="109.76"
   cy="193.7"
   style="fill:#d8f2ff;stroke:#000000;stroke-width:0.5"
   id="ellipse1293"
   r="14.4" />

<text
   x="109.76"
   y="198.7"
   style="font-weight:bold;font-size:15px;font-family:Arial;text-anchor:middle;fill:#ad0000"
   id="text1295">w5</text>

<!-- Vertex:     6 -->

<circle
   cx="109.76"
   cy="114.38"
   style="fill:#d8f2ff;stroke:#000000;stroke-width:0.5"
   id="ellipse1297"
   r="14.4" />

<text
   x="109.76"
   y="119.38"
   style="font-weight:bold;font-size:15px;font-family:Arial;text-anchor:middle;fill:#ad0000"
   id="text1299">w6</text>

<!-- Vertex:     7 -->

<circle
   cx="410.10001"
   cy="540.06"
   style="fill:#ffd8f2;stroke:#000000;stroke-width:0.5"
   id="ellipse1301"
   r="14.4" />

<text
   x="410.10001"
   y="545.06"
   style="font-weight:bold;font-size:15px;font-family:Arial;text-anchor:middle;fill:#ad0000"
   id="text1303">AB</text>

<!-- Vertex:     8 -->

<circle
   cx="410.10001"
   cy="484.53"
   style="fill:#ffd8f2;stroke:#000000;stroke-width:0.5"
   id="ellipse1305"
   r="14.4" />

<text
   x="410.10001"
   y="489.53"
   style="font-weight:bold;font-size:15px;font-family:Arial;text-anchor:middle;fill:#ad0000"
   id="text1307">CD</text>

<!-- Vertex:     9 -->

<circle
   cx="410.10001"
   cy="429"
   style="fill:#ffd8f2;stroke:#000000;stroke-width:0.5"
   id="ellipse1309"
   r="14.4" />

<text
   x="410.10001"
   y="434"
   style="font-weight:bold;font-size:15px;font-family:Arial;text-anchor:middle;fill:#ad0000"
   id="text1311">EF</text>

<!-- Vertex:    10 -->

<circle
   cx="410.10001"
   cy="373.47"
   style="fill:#ffd8f2;stroke:#000000;stroke-width:0.5"
   id="ellipse1313"
   r="14.4" />

<text
   x="410.10001"
   y="378.47"
   style="font-weight:bold;font-size:15px;font-family:Arial;text-anchor:middle;fill:#ad0000"
   id="text1315">GH</text>

<!-- Vertex:    11 -->

<circle
   cx="410.10001"
   cy="317.94"
   style="fill:#ffd8f2;stroke:#000000;stroke-width:0.5"
   id="ellipse1317"
   r="14.4" />

<text
   x="410.10001"
   y="322.94"
   style="font-weight:bold;font-size:15px;font-family:Arial;text-anchor:middle;fill:#ad0000"
   id="text1319">IJ</text>

<!-- Vertex:    12 -->

<circle
   cx="410.10001"
   cy="262.41"
   style="fill:#ffd8f2;stroke:#000000;stroke-width:0.5"
   id="ellipse1321"
   r="14.4" />

<text
   x="410.10001"
   y="267.41"
   style="font-weight:bold;font-size:15px;font-family:Arial;text-anchor:middle;fill:#ad0000"
   id="text1323">KL</text>

<!-- Vertex:    13 -->

<circle
   cx="410.10001"
   cy="206.88"
   style="fill:#ffd8f2;stroke:#000000;stroke-width:0.5"
   id="ellipse1325"
   r="14.4" />

<text
   x="410.10001"
   y="211.88"
   style="font-weight:bold;font-size:15px;font-family:Arial;text-anchor:middle;fill:#ad0000"
   id="text1327">MN</text>

<!-- Vertex:    14 -->

<circle
   cx="410.10001"
   cy="151.35001"
   style="fill:#ffd8f2;stroke:#000000;stroke-width:0.5"
   id="ellipse1329"
   r="14.4" />

<text
   x="410.10001"
   y="156.35001"
   style="font-weight:bold;font-size:15px;font-family:Arial;text-anchor:middle;fill:#ad0000"
   id="text1331">OP</text>

<!-- Vertex:    15 -->

<circle
   cx="410.10001"
   cy="95.82"
   style="fill:#ffd8f2;stroke:#000000;stroke-width:0.5"
   id="ellipse1333"
   r="14.4" />

<text
   x="410.10001"
   y="100.82"
   style="font-weight:bold;font-size:15px;font-family:Arial;text-anchor:middle;fill:#ad0000"
   id="text1335">RS</text>

</g>
    <g
       id="PajekSig-9"
       inkscape:label="PajekSignature"
       transform="matrix(0.26458333,0,0,0.26458333,270.40151,12.173747)">
<g
   transform="translate(3,599)"
   id="g1512">
<g
   transform="scale(0.1)"
   id="g1510">
<g
   transform="matrix(1,0,0,-1,0,96)"
   id="g1508">
<path
   d="m 7.67,49.98 24.09,22.78 15.15,5.87 10.32,1.86 M 72.86,65.23 65.73,83.25 57.06,75.49 56.75,68.65 m 19.52,-0.62 -0.62,16.47 18.27,6.52 13.32,-16.15 m -26.95,-7.15 8.99,17.09 15.49,-3.11 11.46,-8.39 4.95,-13.98 M 56.75,81.08 71.31,64.3"
   style="fill:none;stroke:#8b4513;stroke-width:5"
   id="path1496" />

<path
   d="m 86.18,70.21 5.27,2.79 4.33,-3.42 m -4.64,-8.7 4.95,1.87 2.17,-3.42"
   style="fill:none;stroke:#8b4513;stroke-width:1.5"
   id="path1498" />

<path
   d="m 81.07,49.08 h 6.74 l 5.49,5.3 v 6.5 6.51 l -5.49,5.3 h -6.74 -6.74 l -5.5,-5.3 v -6.51 -6.5 l 5.5,-5.3 z"
   style="fill:#800000;stroke:#8b4513;stroke-width:1"
   id="path1500" />

<path
   d="m 54.63,37.53 13.9,6.03 6.86,12.29 -5.49,9.5 -5.49,7.51 -15.81,1.2 -13.89,-6.02 -13.9,-13.02 -4.86,-14.3 1.49,-7.5 7.48,-4.5 15.81,1.79 z"
   style="fill:#800000;stroke:#8b4513;stroke-width:1"
   id="path1502" />

<path
   d="m 77.82,50.63 26.02,8.7 27.26,-15.53 8.36,-15.85 -0.31,-12.12 M 35.99,5.27 47.15,32.92 61.71,50.01 70.07,46.9 82.77,45.04 83.39,27.02 65.42,12.11 m 3.1,38.52 22.62,-1.24 12.39,-6.22 13.63,-20.5 -1.86,-14.29"
   style="fill:none;stroke:#8b4513;stroke-width:5"
   id="path1504" />

<path
   d="m 41.57,54.98 18.59,9.63 m -7.75,1.56 5.58,-8.7"
   style="fill:none;stroke:#ffffff;stroke-width:5"
   id="path1506" />

</g>

</g>

<animateMotion
   dur="20s"
   path="M3 0 L586 0"
   begin="120s"
   fill="freeze" />

</g>

<g
   transform="translate(3,599)"
   id="g1518">
<g
   transform="scale(0.1)"
   id="g1516">
<text
   x="5"
   y="140"
   style="font-size:75px;font-family:'Brush Script MT';fill:#008000"
   id="text1514">Pajek</text>

</g>

<animateMotion
   dur="0.1s"
   path="M3 0 L586 0"
   begin="120s"
   fill="freeze" />

</g>

</g>
    <g
       id="PajekNet-37"
       inkscape:label="PajekNetwork"
       transform="matrix(0.26458333,0,0,0.26458333,158.87161,18.782926)">

<!-- Arc:     1   10 -->

<g
   transform="translate(408.07,460.05)"
   id="g1525">
<g
   transform="rotate(-16.86)"
   id="g1523">
<path
   d="M 0,0 -2,5 10,0 -2,-5 Z"
   style="fill:#999999"
   id="path1521" />

</g>
</g>

<line
   x1="157.95"
   y1="535.87"
   x2="408.07001"
   y2="460.04999"
   style="stroke:#999999;stroke-width:2"
   id="line1527" />

<!-- Arc:     2   11 -->

<g
   transform="translate(410.64,327)"
   id="g1533">
<g
   transform="rotate(-31.25)"
   id="g1531">
<path
   d="M 0,0 -2,5 10,0 -2,-5 Z"
   style="fill:#999999"
   id="path1529" />

</g>
</g>

<line
   x1="157.95"
   y1="480.34"
   x2="410.64001"
   y2="327"
   style="stroke:#999999;stroke-width:2"
   id="line1535" />

<!-- Arc:     3   10 -->

<g
   transform="translate(407.09,449.94)"
   id="g1541">
<g
   transform="rotate(5.76)"
   id="g1539">
<path
   d="M 0,0 -2,5 10,0 -2,-5 Z"
   style="fill:#999999"
   id="path1537" />

</g>
</g>

<line
   x1="157.95"
   y1="424.81"
   x2="407.09"
   y2="449.94"
   style="stroke:#999999;stroke-width:2"
   id="line1543" />

<!-- Arc:     4   12 -->

<g
   transform="translate(411.63,189.68)"
   id="g1549">
<g
   transform="rotate(-35.3)"
   id="g1547">
<path
   d="M 0,0 -2,5 10,0 -2,-5 Z"
   style="fill:#999999"
   id="path1545" />

</g>
</g>

<line
   x1="157.95"
   y1="369.28"
   x2="411.63"
   y2="189.67999"
   style="stroke:#999999;stroke-width:2"
   id="line1551" />

<!-- Arc:     5   12 -->

<g
   transform="translate(409.73,186.53)"
   id="g1557">
<g
   transform="rotate(-26.81)"
   id="g1555">
<path
   d="M 0,0 -2,5 10,0 -2,-5 Z"
   style="fill:#999999"
   id="path1553" />

</g>
</g>

<line
   x1="157.95"
   y1="313.75"
   x2="409.73001"
   y2="186.53"
   style="stroke:#999999;stroke-width:2"
   id="line1559" />

<!-- Arc:     6   10 -->

<g
   transform="translate(411.63,437.81)"
   id="g1565">
<g
   transform="rotate(35.3)"
   id="g1563">
<path
   d="M 0,0 -2,5 10,0 -2,-5 Z"
   style="fill:#999999"
   id="path1561" />

</g>
</g>

<line
   x1="157.95"
   y1="258.22"
   x2="411.63"
   y2="437.81"
   style="stroke:#999999;stroke-width:2"
   id="line1567" />

<!-- Arc:     7   11 -->

<g
   transform="translate(408.82,304.13)"
   id="g1573">
<g
   transform="rotate(22.02)"
   id="g1571">
<path
   d="M 0,0 -2,5 10,0 -2,-5 Z"
   style="fill:#999999"
   id="path1569" />

</g>
</g>

<line
   x1="157.95"
   y1="202.69"
   x2="408.82001"
   y2="304.13"
   style="stroke:#999999;stroke-width:2"
   id="line1575" />

<!-- Arc:     8   12 -->

<g
   transform="translate(407.09,172.29)"
   id="g1581">
<g
   transform="rotate(5.76)"
   id="g1579">
<path
   d="M 0,0 -2,5 10,0 -2,-5 Z"
   style="fill:#999999"
   id="path1577" />

</g>
</g>

<line
   x1="157.95"
   y1="147.16"
   x2="407.09"
   y2="172.28999"
   style="stroke:#999999;stroke-width:2"
   id="line1583" />

<!-- Arc:     9   11 -->

<g
   transform="translate(412.67,297.61)"
   id="g1589">
<g
   transform="rotate(38.96)"
   id="g1587">
<path
   d="M 0,0 -2,5 10,0 -2,-5 Z"
   style="fill:#999999"
   id="path1585" />

</g>
</g>

<line
   x1="157.95"
   y1="91.629997"
   x2="412.67001"
   y2="297.60999"
   style="stroke:#999999;stroke-width:2"
   id="line1591" />


<!-- Vertex:     1 -->

<circle
   cx="157.95"
   cy="535.87"
   style="fill:#ffd8f2;stroke:#000000;stroke-width:0.5"
   id="ellipse1593"
   r="14.4" />

<text
   x="157.95"
   y="540.87"
   style="font-weight:bold;font-size:15px;font-family:Arial;text-anchor:middle;fill:#ad0000"
   id="text1595">AB</text>

<!-- Vertex:     2 -->

<circle
   cx="157.95"
   cy="480.34"
   style="fill:#ffd8f2;stroke:#000000;stroke-width:0.5"
   id="ellipse1597"
   r="14.4" />

<text
   x="157.95"
   y="485.34"
   style="font-weight:bold;font-size:15px;font-family:Arial;text-anchor:middle;fill:#ad0000"
   id="text1599">CD</text>

<!-- Vertex:     3 -->

<circle
   cx="157.95"
   cy="424.81"
   style="fill:#ffd8f2;stroke:#000000;stroke-width:0.5"
   id="ellipse1601"
   r="14.4" />

<text
   x="157.95"
   y="429.81"
   style="font-weight:bold;font-size:15px;font-family:Arial;text-anchor:middle;fill:#ad0000"
   id="text1603">EF</text>

<!-- Vertex:     4 -->

<circle
   cx="157.95"
   cy="369.28"
   style="fill:#ffd8f2;stroke:#000000;stroke-width:0.5"
   id="ellipse1605"
   r="14.4" />

<text
   x="157.95"
   y="374.28"
   style="font-weight:bold;font-size:15px;font-family:Arial;text-anchor:middle;fill:#ad0000"
   id="text1607">GH</text>

<!-- Vertex:     5 -->

<circle
   cx="157.95"
   cy="313.75"
   style="fill:#ffd8f2;stroke:#000000;stroke-width:0.5"
   id="ellipse1609"
   r="14.4" />

<text
   x="157.95"
   y="318.75"
   style="font-weight:bold;font-size:15px;font-family:Arial;text-anchor:middle;fill:#ad0000"
   id="text1611">IJ</text>

<!-- Vertex:     6 -->

<circle
   cx="157.95"
   cy="258.22"
   style="fill:#ffd8f2;stroke:#000000;stroke-width:0.5"
   id="ellipse1613"
   r="14.4" />

<text
   x="157.95"
   y="263.22"
   style="font-weight:bold;font-size:15px;font-family:Arial;text-anchor:middle;fill:#ad0000"
   id="text1615">KL</text>

<!-- Vertex:     7 -->

<circle
   cx="157.95"
   cy="202.69"
   style="fill:#ffd8f2;stroke:#000000;stroke-width:0.5"
   id="ellipse1617"
   r="14.4" />

<text
   x="157.95"
   y="207.69"
   style="font-weight:bold;font-size:15px;font-family:Arial;text-anchor:middle;fill:#ad0000"
   id="text1619">MN</text>

<!-- Vertex:     8 -->

<circle
   cx="157.95"
   cy="147.16"
   style="fill:#ffd8f2;stroke:#000000;stroke-width:0.5"
   id="ellipse1621"
   r="14.4" />

<text
   x="157.95"
   y="152.16"
   style="font-weight:bold;font-size:15px;font-family:Arial;text-anchor:middle;fill:#ad0000"
   id="text1623">OP</text>

<!-- Vertex:     9 -->

<circle
   cx="157.95"
   cy="91.629997"
   style="fill:#ffd8f2;stroke:#000000;stroke-width:0.5"
   id="ellipse1625"
   r="14.4" />

<text
   x="157.95"
   y="96.629997"
   style="font-weight:bold;font-size:15px;font-family:Arial;text-anchor:middle;fill:#ad0000"
   id="text1627">RS</text>

<!-- Vertex:    10 -->

<circle
   cx="432.60999"
   cy="452.57001"
   style="fill:#d8ff4f;stroke:#000000;stroke-width:0.5"
   id="ellipse1629"
   r="14.4" />

<text
   x="432.60999"
   y="457.57001"
   style="font-weight:bold;font-size:15px;font-family:Arial;text-anchor:middle;fill:#ad0000"
   id="text1631">IT</text>

<!-- Vertex:    11 -->

<circle
   cx="432.60999"
   cy="313.75"
   style="fill:#d8ff4f;stroke:#000000;stroke-width:0.5"
   id="ellipse1633"
   r="14.4" />

<text
   x="432.60999"
   y="318.75"
   style="font-weight:bold;font-size:15px;font-family:Arial;text-anchor:middle;fill:#ad0000"
   id="text1635">DE</text>

<!-- Vertex:    12 -->

<circle
   cx="432.60999"
   cy="174.92"
   style="fill:#d8ff4f;stroke:#000000;stroke-width:0.5"
   id="ellipse1637"
   r="14.4" />

<text
   x="432.60999"
   y="179.92"
   style="font-weight:bold;font-size:15px;font-family:Arial;text-anchor:middle;fill:#ad0000"
   id="text1639">SI</text>

</g>
  </g>
</svg>
